HIERARCHY
ROOT Hips
{
  OFFSET -187.679 86.5976 -156.378
  CHANNELS 6 Xposition Yposition Zposition Zrotation Xrotation Yrotation
  JOINT LeftUpLeg
  {
    OFFSET 8.64259 1.95398 -2.38835
    CHANNELS 3 Zrotation Xrotation Yrotation
    JOINT LeftLeg
    {
      OFFSET 43.7702 0 0
      CHANNELS 3 Zrotation Xrotation Yrotation
      JOINT LeftFoot
      {
        OFFSET 40.6238 0 0
        CHANNELS 3 Zrotation Xrotation Yrotation
        JOINT LeftToeBase
        {
          OFFSET 12.7242 0 0
          CHANNELS 3 Zrotation Xrotation Yrotation
          End Site
          {
            OFFSET 0 0 0
          }
        }
      }
    }
  }
  JOINT RightUpLeg
  {
    OFFSET -8.2249 1.95398 -2.59336
    CHANNELS 3 Zrotation Xrotation Yrotation
    JOINT RightLeg
    {
      OFFSET 43.5653 0 0
      CHANNELS 3 Zrotation Xrotation Yrotation
      JOINT RightFoot
      {
        OFFSET 40.6238 0 0
        CHANNELS 3 Zrotation Xrotation Yrotation
        JOINT RightToeBase
        {
          OFFSET 12.7242 0 0
          CHANNELS 3 Zrotation Xrotation Yrotation
          End Site
          {
            OFFSET 0 0 0
          }
        }
      }
    }
  }
  JOINT Spine
  {
    OFFSET 0.165834 0.87714 6.61349
    CHANNELS 3 Zrotation Xrotation Yrotation
    JOINT Spine1
    {
      OFFSET 7.38963 1.71661e-005 0
      CHANNELS 3 Zrotation Xrotation Yrotation
      JOINT Spine2
      {
        OFFSET 11.9445 1.14441e-005 0
        CHANNELS 3 Zrotation Xrotation Yrotation
        JOINT Spine3
        {
          OFFSET 14.7254 4.19617e-005 0
          CHANNELS 3 Zrotation Xrotation Yrotation
          JOINT Spine4
          {
            OFFSET 10.9679 0 0
            CHANNELS 3 Zrotation Xrotation Yrotation
            JOINT RightShoulder
            {
              OFFSET 2.46616 -1.6653 3.69651
              CHANNELS 3 Zrotation Xrotation Yrotation
              JOINT RightArm
              {
                OFFSET 13.0012 0 0
                CHANNELS 3 Zrotation Xrotation Yrotation
                JOINT RightForeArm
                {
                  OFFSET 28.7848 1.52588e-005 0
                  CHANNELS 3 Zrotation Xrotation Yrotation
                  JOINT RightHand
                  {
                    OFFSET 26.5688 1.52588e-005 0
                    CHANNELS 3 Zrotation Xrotation Yrotation
                    End Site
                    {
                      OFFSET 0 0 0
                    }
                  }
                }
              }
            }
            JOINT LeftShoulder
            {
              OFFSET 2.38034 -1.29275 -3.7523
              CHANNELS 3 Zrotation Xrotation Yrotation
              JOINT LeftArm
              {
                OFFSET 16.3182 6.10352e-005 0
                CHANNELS 3 Zrotation Xrotation Yrotation
                JOINT LeftForeArm
                {
                  OFFSET 27.0901 0 0
                  CHANNELS 3 Zrotation Xrotation Yrotation
                  JOINT LeftHand
                  {
                    OFFSET 24.5451 1.52588e-005 0
                    CHANNELS 3 Zrotation Xrotation Yrotation
                    End Site
                    {
                      OFFSET 0 0 0
                    }
                  }
                }
              }
            }
            JOINT Neck
            {
              OFFSET 5.0226 -0.0266342 0
              CHANNELS 3 Zrotation Xrotation Yrotation
              JOINT Head
              {
                OFFSET 6.69363 2.86102e-005 0
                CHANNELS 3 Zrotation Xrotation Yrotation
                End Site
                {
                  OFFSET 0 0 0
                }
              }
            }
          }
        }
      }
    }
  }
}
MOTION
Frames:	15
Frame Time:	0.0416667
35.4184 102.818 -340.886 -170.218 -83.1579 -171.892 -173.395 -8.86567 90.8126 -10.8557 18.2393 7.89028 68.4236 5.01358 1.85448 22.5307 -9.21089 16.3279 173.514 -5.56537 89.7675 -17.2383 8.04919 2.83699 69.2663 -3.26603 0.6848 25.9978 -1.46032 3.28739 0.108882 7.56305 -89.6872 11.7465 0.363473 0.585182 0.0754709 0.38888 0.568603 -22.4588 0.170793 0.667354 -2.44609 0.170803 0.667365 88.1254 -49.8657 -103.512 28.5652 -25.9615 -15.3928 -15.0655 -18.8687 -15.3176 -6.0195 -0.0650601 -4.09048 -89.87 -45.5141 78.145 -26.6127 28.6345 -9.31927 7.85012 -6.25682 -12.965 -3.32892 -0.107088 -1.75101 5.35914 -3.1931 -4.28227 3.61722 -2.25109 1.48096 
34.3641 102.539 -340.097 -166.199 -82.2647 -168.704 -172.9 -10.0119 91.0556 -10.8644 18.1927 6.9318 68.3403 6.38384 5.19309 21.6668 -6.27792 8.4772 172.645 -6.06693 88.8425 -18.9819 6.97425 3.17886 70.9332 -3.32908 1.15169 25.3207 -1.67334 3.55323 0.158899 7.63527 -89.6107 11.6015 0.498504 0.724305 -0.0695542 0.529887 0.701663 -22.6034 0.257772 0.840626 -2.59073 0.257784 0.840638 85.6681 -50.1216 -107.161 27.546 -26.0743 -14.179 -16.3374 -23.5629 -17.1465 -11.7253 -0.23834 -2.68045 -90.0028 -46.9148 78.2643 -26.3784 24.9343 -6.70474 8.3573 -7.17535 -14.2489 -6.77389 -0.0102556 -6.1739 3.98872 -2.7066 -3.0053 4.31968 -2.05346 1.2917 
33.0834 102.004 -339.284 -170.219 -82.0147 -173.111 -172.162 -6.61734 92.676 -18.2677 19.0284 4.72712 70.1593 7.98676 5.2014 23.3998 -5.72384 9.23594 172.63 -6.03059 89.1401 -21.2837 7.55581 3.38786 72.7331 -3.28306 1.08963 24.3186 -1.77302 3.27811 0.217826 7.76132 -89.5476 11.3482 0.644362 0.83555 -0.322876 0.680513 0.806374 -22.8564 0.363471 0.990565 -2.84373 0.363469 0.990559 86.1204 -49.7033 -106.604 27.6666 -26.5239 -14.4686 -16.104 -22.7542 -17.0167 -11.1739 -0.201263 -3.01427 -89.3921 -46.3834 79.0891 -26.1103 21.2688 -5.30577 8.96817 -7.11187 -15.6222 -3.76557 -0.0943122 -3.88507 4.82889 -2.48128 -2.25309 3.9191 -1.95441 1.22386 
32.2008 101.458 -338.685 -176.507 -82.2904 -179.36 -172.916 0.953603 93.9789 -30.978 16.8061 5.16567 70.96 6.90184 0.695434 24.4361 -5.70883 10.51 172.701 -5.7364 89.7733 -22.7586 8.55466 3.80982 74.2837 -3.36049 1.00471 24.6577 -2.02409 4.23998 0.248346 7.81795 -89.6198 11.2355 0.671184 0.690725 -0.435423 0.700941 0.660509 -22.9698 0.432566 0.860504 -2.95715 0.432571 0.860497 85.4958 -49.7345 -107.54 26.504 -26.6651 -13.7022 -15.6904 -21.7343 -16.5199 -10.348 -0.172014 -3.20364 -89.3581 -46.5549 79.1802 -25.8679 19.0325 -3.58178 9.12909 -7.51962 -16.394 -3.88173 -0.0934937 -3.90401 4.71713 -2.09048 -1.14214 4.29054 -1.78384 0.939896 
31.6534 101.292 -337.868 171.852 -82.7638 168.323 -175.043 8.42458 92.1113 -43.1076 17.0283 6.52902 70.0243 5.25834 -1.7804 23.6747 -5.43934 8.87362 172.792 -6.4178 89.86 -21.628 10.6421 3.87017 74.9824 -3.39734 1.3344 24.8154 -1.94023 4.07363 0.333697 7.83213 -89.615 11.2068 0.843242 0.683583 -0.464069 0.872511 0.645808 -22.9991 0.598814 0.9054 -2.9864 0.59882 0.905401 86.1278 -48.8269 -106.861 27.2065 -25.9453 -13.4077 -14.4729 -16.1753 -14.9385 -10.5601 -0.0240619 -4.93595 -89.154 -46.2178 79.4241 -26.1082 17.6724 -2.0341 9.10958 -8.16067 -16.5702 -3.27341 -0.0942057 -3.77007 4.28061 -2.1489 -0.801646 4.59497 -1.93027 0.540581 
31.8744 101.569 -336.525 166.273 -83.3059 161.112 -176.845 13.8279 88.328 -42.9917 16.8306 5.85734 70.3699 3.90771 -6.5765 23.8778 -6.73942 12.3324 171.928 -6.92315 88.0461 -20.5083 10.2303 3.6476 74.6857 -3.57577 1.18571 25.8117 -1.53827 3.4268 0.595539 7.88276 -89.545 11.1035 1.39664 0.770066 -0.566897 1.42916 0.707843 -23.1043 1.10063 1.15422 -3.0917 1.10064 1.15422 85.9384 -48.6313 -107.212 24.9942 -27.2321 -15.6147 -14.2395 -16.4437 -14.8786 -10.391 -0.0935918 -4.12913 -89.0012 -46.0562 79.6274 -26.9397 15.7233 -0.456935 9.45347 -7.49152 -17.5984 -3.20066 -0.0940419 -3.48206 4.61326 -2.74517 0.109703 4.47683 -2.69507 0.238084 
32.379 101.427 -334.227 154.747 -83.6206 148.449 -178.561 16.8216 84.2175 -33.2859 19.8889 4.83194 67.934 3.85455 -2.90863 22.3083 -6.36864 9.74767 171.393 -7.95135 86.8364 -19.6157 11.5265 3.45909 75.3527 -3.79623 1.41823 26.5937 -1.48633 3.71693 0.729677 7.93116 -89.54 11.0062 1.66573 0.755844 -0.66389 1.69738 0.68178 -23.2035 1.36156 1.22156 -3.19085 1.36157 1.22156 85.558 -48.5744 -107.813 21.644 -28.2419 -20.0088 -14.3914 -15.4339 -15.6841 -9.25114 -0.0120241 -5.10705 -88.7537 -46.1881 80.0415 -28.5373 13.9297 2.00893 10.0402 -6.30466 -18.4533 -3.58083 -0.0942291 -3.42122 5.49293 -2.71342 1.60269 4.99281 -2.93928 0.186223 
32.8841 101.011 -330.895 147.965 -83.7441 141.433 179.657 18.6611 81.3719 -22.0727 20.5484 4.73013 67.4345 4.51633 0.453274 16.8577 -5.9848 2.67206 170.92 -10.2719 86.3535 -18.2659 12.2207 3.46805 76.1648 -4.38291 1.21104 28.3466 -1.43433 4.70821 0.914053 7.98132 -89.6683 10.9081 1.97327 0.473688 -0.761373 1.99221 0.386343 -23.3057 1.73966 1.04499 -3.29302 1.73967 1.04499 86.0186 -48.0255 -107.279 18.1763 -28.3017 -24.5957 -14.9232 -14.6948 -17.1619 -9.45063 -0.0192546 -4.99737 -89.5788 -47.4115 79.0293 -29.6708 15.5253 4.58853 9.29598 -7.57582 -17.3196 -3.79183 -0.103537 -2.81847 5.72028 -2.68434 3.07577 6.40735 -3.22499 -0.257488 
33.0863 100.038 -326.038 156.359 -84.2211 150.236 179.241 19.6304 80.2132 -16.2134 17.4371 5.04089 67.4126 3.72783 -1.15504 15.4291 -6.957 3.38221 171.53 -14.2312 86.996 -16.6827 13.2912 2.44542 77.64 -5.04309 1.8155 29.6676 -1.06927 4.32617 1.06241 8.02773 -89.7278 10.8166 2.24118 0.332637 -0.852467 2.25365 0.233617 -23.4006 2.03755 0.991081 -3.388 2.03756 0.991088 84.8223 -48.7017 -108.896 14.8942 -28.4563 -28.4134 -15.6497 -16.9782 -18.339 -7.23487 0.00686788 -5.48523 -89.4334 -48.0122 79.3817 -31.7749 15.9902 7.0192 9.30257 -6.87549 -15.2361 -3.85809 -0.116825 -1.86805 5.91244 -2.43034 2.7902 6.91776 -2.93905 -0.409443 
33.3879 98.6351 -319.319 -164.569 -84.9567 -170.32 179.83 20.7388 81.1322 -20.1423 13.4787 3.93099 65.9046 3.20387 -1.31461 15.1469 -6.97924 3.16304 170.783 -17.7683 85.8885 -16.9289 9.416 1.38507 76.9325 -4.85906 1.88109 33.5421 0.339647 1.59475 1.33857 7.94833 -89.6589 10.9745 2.82288 0.41009 -0.6934 2.83819 0.285342 -23.2492 2.56905 1.24004 -3.23659 2.56905 1.24004 84.4252 -48.8569 -109.449 14.5041 -29.8394 -30.6659 -15.3942 -18.4987 -18.0932 -6.97896 0.043816 -6.43138 -89.508 -49.2095 79.523 -32.706 15.4095 9.95494 8.79793 -8.06304 -14.1423 -5.06681 -0.128321 -2.4443 6.46589 -1.90412 2.28719 6.14192 -2.38026 -0.966436 
33.6436 98.7547 -311.235 -137.909 -82.6921 -143.379 -178.511 20.3864 81.1954 -28.7164 10.949 3.27264 64.0175 1.81784 -1.28027 14.5451 -7.96685 4.59846 168.928 -20.137 83.1147 -19.7463 5.51207 0.117836 71.8317 -4.24854 1.58892 38.7078 1.04761 2.44022 1.45536 7.88355 -89.5879 11.1025 3.0882 0.520798 -0.564814 3.10813 0.384237 -23.1243 2.7888 1.42551 -3.11166 2.78881 1.42551 85.0268 -48.4314 -108.671 18.7913 -29.3823 -28.8206 -15.1026 -20.913 -16.4956 -10.1327 -0.104212 -3.89558 -89.777 -50.5678 79.4083 -31.9649 15.9165 9.6772 8.3204 -9.18402 -9.46774 -5.46745 -0.118251 -2.98704 6.32921 -1.45413 1.99842 5.53959 -1.87322 -0.888582 
34.3225 99.4141 -302.478 -148.051 -82.1851 -153.552 -177.841 16.0533 79.7739 -34.4463 12.5304 3.69185 69.6604 4.13399 -0.739483 13.5197 -8.78701 5.24006 167.197 -14.0803 80.4752 -37.4691 0.332829 -0.70347 60.8179 -1.2842 -0.279631 37.0846 -0.451163 7.82481 1.12025 7.84475 -89.5459 11.1785 2.44076 0.665082 -0.49024 2.46767 0.556951 -23.0388 2.12801 1.36815 -3.02614 2.12801 1.36814 85.1188 -48.6656 -108.455 23.1001 -29.2276 -21.9927 -15.4134 -19.9007 -16.9271 -10.101 -0.101283 -4.0056 -89.8481 -49.3509 79.042 -31.2613 17.9803 5.87425 7.86673 -10.5088 -6.99645 -4.84609 -0.107909 -3.16833 5.14103 -1.36497 0.479445 5.41181 -1.41362 0.138454 
34.7305 99.6811 -295.708 -154.695 -81.2964 -160.084 -177.525 10.5206 78.8071 -35.7616 12.6645 4.69552 74.151 5.97655 0.069898 14.0867 -8.66406 5.54386 168.923 -0.541776 80.2373 -60.7703 -3.5105 -2.83071 54.7011 0.494894 0.136211 22.8215 -2.59349 4.81738 0.727389 7.95404 -89.5492 10.9606 1.65682 0.739342 -0.709465 1.68776 0.665683 -23.2491 1.35802 1.20315 -3.23644 1.35803 1.20315 84.5084 -49.5016 -109.107 23.6321 -28.072 -16.0027 -16.3345 -19.8218 -18.2809 -10.2266 -0.0860899 -4.19877 -89.7432 -47.9582 78.897 -27.7129 19.1823 -1.7496 8.03734 -9.97231 -8.98517 -3.5804 -0.0984898 -3.07384 4.35854 -0.931088 -0.592335 6.45725 -0.78978 0.210924 
34.8687 100.667 -289.612 -159.283 -81.6695 -162.909 -178.03 4.74158 78.9977 -33.3012 13.8798 7.25119 74.96 6.55264 1.54423 16.0764 -8.41649 7.02337 173.253 10.0693 85.2176 -64.7275 1.87873 -3.14212 65.3935 -2.85488 -1.1088 24.6413 -1.9968 4.16543 0.27125 7.98077 -89.7078 10.9117 0.675195 0.516205 -0.759085 0.697258 0.485985 -23.2945 0.488839 0.695259 -3.28192 0.488837 0.695263 84.1065 -50.453 -109.394 23.454 -24.5148 -12.403 -15.6239 -18.677 -16.065 -10.3826 -0.110848 -3.92235 -90.0588 -47.3146 78.2689 -21.2018 19.8248 -12.0183 8.19681 -9.5736 -10.316 -3.52331 -0.0809152 -4.09765 2.56799 -0.146688 -2.56358 6.50659 0.334139 0.818434 
34.0517 101.644 -283.377 -166.611 -81.7645 -166.533 -176.165 -1.36488 84.0424 -30.446 16.0284 8.18328 77.221 7.40107 0.383207 14.4108 -8.15236 4.88955 177.426 15.724 92.1811 -50.2101 11.2068 -1.44553 66.7299 -3.43253 0.0456005 22.9942 -1.83748 2.731 -0.0989709 8.08489 -90.033 10.7045 -0.212218 -0.0451361 -0.966537 -0.214002 -0.0357561 -23.5014 -0.188852 -0.106834 -3.48874 -0.188844 -0.10683 84.8955 -50.5947 -108.171 24.398 -22.9533 -8.85519 -16.0997 -16.5183 -17.0052 -9.40793 -0.112676 -3.78331 -89.5287 -44.2247 78.3803 -18.0596 18.9746 -21.1539 8.36003 -9.92505 -13.0483 -5.66397 -0.0288211 -6.34394 1.46421 0.172753 -6.30225 6.45531 1.29304 2.03591 
